#tb 0: 1/25
#media_type 0: video
#codec_id 0: rawvideo
#dimensions 0: 416x240
#sar 0: 0/1
#tb 1: 1/25
#media_type 1: video
#codec_id 1: rawvideo
#dimensions 1: 128x128
#sar 1: 0/1
0,          0,          0,        1,   149760, 0x94a51701
0,          1,          1,        1,   149760, 0x67c71885
0,          2,          2,        1,   149760, 0x218f1751
0,          3,          3,        1,   149760, 0x56951bef
0,          4,          4,        1,   149760, 0x76aec81e
0,          5,          5,        1,   149760, 0x20df61ac
0,          6,          6,        1,   149760, 0x2eacf616
0,          7,          7,        1,   149760, 0x06322ce2
0,          8,          8,        1,   149760, 0xf14aa104
0,          9,          9,        1,   149760, 0x9e1cf00a
1,         10,         10,        1,    24576, 0xf8f638da
0,         11,         11,        1,   149760, 0x6d584d2c
1,         12,         12,        1,    24576, 0xd22675a4
0,         13,         13,        1,   149760, 0x8b21be89
1,         14,         14,        1,    24576, 0x60da42e6
0,         15,         15,        1,   149760, 0x3946d0ec
1,         16,         16,        1,    24576, 0xe0577f6e
0,         17,         17,        1,   149760, 0x70859214
1,         18,         18,        1,    24576, 0x8d9944bd
0,         19,         19,        1,   149760, 0xd60e93f1
0,         20,         20,        1,   149760, 0xb07cc873
0,         21,         21,        1,   149760, 0x86eacff5
0,         22,         22,        1,   149760, 0x259afb24
0,         23,         23,        1,   149760, 0x225dd819
0,         24,         24,        1,   149760, 0xfc47134c
0,         25,         25,        1,   149760, 0x15da1ece
0,         26,         26,        1,   149760, 0xb2ec5b6f
0,         27,         27,        1,   149760, 0xa18f35c6
0,         28,         28,        1,   149760, 0x8fa8970f
0,         29,         29,        1,   149760, 0x25a87e60
0,         30,         30,        1,   149760, 0x77c88c93
0,         31,         31,        1,   149760, 0xcb673be3
0,         32,         32,        1,   149760, 0x219f51e6
0,         33,         33,        1,   149760, 0x59ea3783
0,         34,         34,        1,   149760, 0x837644b5
0,         35,         35,        1,   149760, 0x9b62bc7c
0,         36,         36,        1,   149760, 0xbb32efa8
0,         37,         37,        1,   149760, 0x1a1bcf3f
0,         38,         38,        1,   149760, 0x9673c0e1
0,         39,         39,        1,   149760, 0x7c6461e2
0,         40,         40,        1,   149760, 0x0551768c
0,         41,         41,        1,   149760, 0xa5ce5d3a
0,         42,         42,        1,   149760, 0xe9caa587
0,         43,         43,        1,   149760, 0xf38613ea
0,         44,         44,        1,   149760, 0x02083cce
0,         45,         45,        1,   149760, 0xd5f0ce4e
0,         46,         46,        1,   149760, 0xb9ed49cd
0,         47,         47,        1,   149760, 0xdbe0d518
0,         48,         48,        1,   149760, 0x80f607ca
0,         49,         49,        1,   149760, 0x9f7e3d36
0,         50,         50,        1,   149760, 0x7f73121f
0,         51,         51,        1,   149760, 0x4cff0e8b
0,         52,         52,        1,   149760, 0x638dd91d
0,         53,         53,        1,   149760, 0xe28dd86b
0,         54,         54,        1,   149760, 0xc2b89e3a
0,         55,         55,        1,   149760, 0xe8b67842
0,         56,         56,        1,   149760, 0xc69fe16f
0,         57,         57,        1,   149760, 0xb8b5f913
0,         58,         58,        1,   149760, 0x5fac972a
0,         59,         59,        1,   149760, 0x0306ed25
0,         60,         60,        1,   149760, 0x94271af0
0,         61,         61,        1,   149760, 0x11b795df
0,         62,         62,        1,   149760, 0x8f651e3e
0,         63,         63,        1,   149760, 0xdfb452f9
0,         64,         64,        1,   149760, 0x686e83ff
0,         65,         65,        1,   149760, 0x56ced1b4
0,         66,         66,        1,   149760, 0x8df69755
1,         67,         67,        1,    24576, 0xa82c4bc6
0,         68,         68,        1,   149760, 0x5245b9f0
1,         69,         69,        1,    24576, 0x2d9451db
0,         70,         70,        1,   149760, 0x957cd0e6
1,         71,         71,        1,    24576, 0x8b4b56c9
0,         72,         72,        1,   149760, 0x1b01adc7
1,         73,         73,        1,    24576, 0x4664573a
0,         74,         74,        1,   149760, 0xea035d18
1,         75,         75,        1,    24576, 0x3f3d4f5a
0,         76,         76,        1,   149760, 0x965affa4
1,         77,         77,        1,    24576, 0xaf034600
0,         78,         78,        1,   149760, 0xa1456bd2
1,         79,         79,        1,    24576, 0x7f5d3504
0,         80,         80,        1,   149760, 0x5291e254
1,         81,         81,        1,    24576, 0x59562099
0,         82,         82,        1,   149760, 0xd97f564a
1,         83,         83,        1,    24576, 0xd8a609de
0,         84,         84,        1,   149760, 0x91a61e7f
1,         85,         85,        1,    24576, 0xcf5008ca
0,         86,         86,        1,   149760, 0xa268b503
1,         87,         87,        1,    24576, 0x2c4af809
0,         88,         88,        1,   149760, 0xd01c152d
1,         89,         89,        1,    24576, 0x8366e0e1
0,         90,         90,        1,   149760, 0xbe51742d
1,         91,         91,        1,    24576, 0x381cc7e9
0,         92,         92,        1,   149760, 0x15d4f93b
1,         93,         93,        1,    24576, 0x576bbadd
0,         94,         94,        1,   149760, 0x4a755f1b
1,         95,         95,        1,    24576, 0x3516a052
0,         96,         96,        1,   149760, 0x630d2e54
1,         97,         97,        1,    24576, 0xd9489703
0,         98,         98,        1,   149760, 0x1c4c14cd
1,         99,         99,        1,    24576, 0xa84f8afa
0,        100,        100,        1,   149760, 0x831a7510
1,        101,        101,        1,    24576, 0x4d32945c
0,        102,        102,        1,   149760, 0x9aac3ee7
1,        103,        103,        1,    24576, 0x6b14b0d7
0,        104,        104,        1,   149760, 0xd50d3baa
1,        105,        105,        1,    24576, 0xb05dd8b6
0,        106,        106,        1,   149760, 0x92d549c6
1,        107,        107,        1,    24576, 0xfd9a02ca
0,        108,        108,        1,   149760, 0x2232ec60
1,        109,        109,        1,    24576, 0xa5b92802
0,        110,        110,        1,   149760, 0x78092c24
1,        111,        111,        1,    24576, 0x385e36de
0,        112,        112,        1,   149760, 0xe5c7cead
1,        113,        113,        1,    24576, 0xd4072d1a
0,        114,        114,        1,   149760, 0x1bf8dfd0
1,        115,        115,        1,    24576, 0x43b30476
0,        116,        116,        1,   149760, 0x117aa880
1,        117,        117,        1,    24576, 0x79afd3bf
0,        118,        118,        1,   149760, 0xf4ee5505
1,        119,        119,        1,    24576, 0x8d538ff9
0,        120,        120,        1,   149760, 0x7b2bd220
1,        121,        121,        1,    24576, 0x187a8509
0,        122,        122,        1,   149760, 0xdbaf519b
1,        123,        123,        1,    24576, 0xd97f6ec7
0,        124,        124,        1,   149760, 0x1a386b01
1,        125,        125,        1,    24576, 0x13e16de1
0,        126,        126,        1,   149760, 0xf0bc3e7d
1,        127,        127,        1,    24576, 0x27628c3b
0,        128,        128,        1,   149760, 0xb2ba417b
1,        129,        129,        1,    24576, 0x260eddf8
0,        130,        130,        1,   149760, 0xb18ebdb9
1,        131,        131,        1,    24576, 0x47291ff7
0,        132,        132,        1,   149760, 0x57c7e50f
1,        133,        133,        1,    24576, 0x6ed4630e
0,        134,        134,        1,   149760, 0xc0d53c18
1,        135,        135,        1,    24576, 0x56f98141
0,        136,        136,        1,   149760, 0x94fb35f1
1,        137,        137,        1,    24576, 0x62c48555
0,        138,        138,        1,   149760, 0x0cc9b521
1,        139,        139,        1,    24576, 0x059a7505
0,        140,        140,        1,   149760, 0xd618f78f
1,        141,        141,        1,    24576, 0x99c752c9
0,        142,        142,        1,   149760, 0x12d119cb
1,        143,        143,        1,    24576, 0x84c94c61
0,        144,        144,        1,   149760, 0x479a07b2
1,        145,        145,        1,    24576, 0xdac16dba
0,        146,        146,        1,   149760, 0x5009d4fe
1,        147,        147,        1,    24576, 0xc3c98ceb
0,        148,        148,        1,   149760, 0x31ce0337
1,        149,        149,        1,    24576, 0x44afbc11
0,        150,        150,        1,   149760, 0x72e850bb
1,        151,        151,        1,    24576, 0x1ed6f485
0,        152,        152,        1,   149760, 0x25cd1c68
1,        153,        153,        1,    24576, 0x14a91968
0,        154,        154,        1,   149760, 0x6f0e7fa8
1,        155,        155,        1,    24576, 0x398a29a7
0,        156,        156,        1,   149760, 0x12b61c36
1,        157,        157,        1,    24576, 0xe7c43a2d
0,        158,        158,        1,   149760, 0xcfd5918d
1,        159,        159,        1,    24576, 0x417c42a9
0,        160,        160,        1,   149760, 0x08b1c6f2
1,        161,        161,        1,    24576, 0x1a273fff
